<svg width="128" height="128" viewBox="0 0 128 128" fill="none" xmlns="http://www.w3.org/2000/svg">
  <!-- Background gradient -->
  <defs>
    <linearGradient id="filmGradient" x1="0%" y1="0%" x2="100%" y2="100%">
      <stop offset="0%" style="stop-color:#3B82F6;stop-opacity:1" />
      <stop offset="100%" style="stop-color:#8B5CF6;stop-opacity:1" />
    </linearGradient>
    <linearGradient id="gaugeGradient" x1="0%" y1="0%" x2="100%" y2="100%">
      <stop offset="0%" style="stop-color:#A78BFA;stop-opacity:1" />
      <stop offset="100%" style="stop-color:#EC4899;stop-opacity:1" />
    </linearGradient>
  </defs>
  
  <!-- Film strip frame -->
  <rect x="10" y="20" width="108" height="88" rx="12" fill="url(#filmGradient)"/>
  
  <!-- Film perforations - top -->
  <rect x="18" y="24" width="8" height="8" rx="2" fill="white"/>
  <rect x="32" y="24" width="8" height="8" rx="2" fill="white"/>
  <rect x="46" y="24" width="8" height="8" rx="2" fill="white"/>
  <rect x="60" y="24" width="8" height="8" rx="2" fill="white"/>
  <rect x="74" y="24" width="8" height="8" rx="2" fill="white"/>
  <rect x="88" y="24" width="8" height="8" rx="2" fill="white"/>
  <rect x="102" y="24" width="8" height="8" rx="2" fill="white"/>
  
  <!-- Film perforations - bottom -->
  <rect x="18" y="96" width="8" height="8" rx="2" fill="white"/>
  <rect x="32" y="96" width="8" height="8" rx="2" fill="white"/>
  <rect x="46" y="96" width="8" height="8" rx="2" fill="white"/>
  <rect x="60" y="96" width="8" height="8" rx="2" fill="white"/>
  <rect x="74" y="96" width="8" height="8" rx="2" fill="white"/>
  <rect x="88" y="96" width="8" height="8" rx="2" fill="white"/>
  <rect x="102" y="96" width="8" height="8" rx="2" fill="white"/>
  
  <!-- Divider line -->
  <rect x="62" y="40" width="4" height="48" rx="2" fill="white" opacity="0.8"/>
  
  <!-- Left section - Play button -->
  <rect x="20" y="44" width="32" height="32" rx="6" fill="#5B7FE8" opacity="0.6"/>
  <path d="M32 52L42 60L32 68Z" fill="white" opacity="0.9"/>
  
  <!-- Left section - Stars -->
  <path d="M26 74L27 77L30 77L27.5 79L28.5 82L26 80L23.5 82L24.5 79L22 77L25 77Z" fill="white" opacity="0.8"/>
  <path d="M32 74L33 77L36 77L33.5 79L34.5 82L32 80L29.5 82L30.5 79L28 77L31 77Z" fill="white" opacity="0.8"/>
  <path d="M38 74L39 77L42 77L39.5 79L40.5 82L38 80L35.5 82L36.5 79L34 77L37 77Z" fill="white" opacity="0.8"/>
  
  <!-- Right section - Rating gauge background -->
  <circle cx="84" cy="60" r="16" fill="url(#gaugeGradient)" opacity="0.8"/>
  <circle cx="84" cy="60" r="12" fill="#7C3AED" opacity="0.6"/>
  
  <!-- Gauge arc -->
  <path d="M 72 60 A 12 12 0 1 1 96 60" stroke="white" stroke-width="3" fill="none" opacity="0.9" stroke-linecap="round"/>
  
  <!-- Gauge needle -->
  <line x1="84" y1="60" x2="92" y2="52" stroke="white" stroke-width="2.5" stroke-linecap="round"/>
  <circle cx="84" cy="60" r="2.5" fill="white"/>
  
  <!-- Right section - Stars -->
  <path d="M96 46L97 48L99 48L97.5 49.5L98 51.5L96 50L94 51.5L94.5 49.5L93 48L95 48Z" fill="white" opacity="0.8"/>
  <path d="M100 50L101 52L103 52L101.5 53.5L102 55.5L100 54L98 55.5L98.5 53.5L97 52L99 52Z" fill="white" opacity="0.8"/>
  <path d="M104 54L105 56L107 56L105.5 57.5L106 59.5L104 58L102 59.5L102.5 57.5L101 56L103 56Z" fill="white" opacity="0.8"/>
  <path d="M104 66L105 68L107 68L105.5 69.5L106 71.5L104 70L102 71.5L102.5 69.5L101 68L103 68Z" fill="white" opacity="0.8"/>
  <path d="M100 70L101 72L103 72L101.5 73.5L102 75.5L100 74L98 75.5L98.5 73.5L97 72L99 72Z" fill="white" opacity="0.8"/>
  
  <!-- Bottom bar -->
  <rect x="70" y="84" width="32" height="3" rx="1.5" fill="white" opacity="0.7"/>
</svg>
